<?xml version="1.0" encoding="UTF-8"?>
<svg id="Layer_2" data-name="Layer 2" xmlns="http://www.w3.org/2000/svg" viewBox="0 0 105.34 23">
  <defs>
    <style>
      .cls-1 {
        fill: #ed1c24;
      }

      .cls-2 {
        fill: #1c427a;
      }
    </style>
  </defs>
  <g id="Layer_1-2" data-name="Layer 1">
    <g>
      <path class="cls-1" d="M7.57,0H1.91C.85,0,0,.85,0,1.91v19.14c0,1.15,1.29,1.83,2.24,1.18l3.5-2.4c.12-.08.22-.19.31-.3.19-.25.31-.55.31-.88V7.92c-.07-1.25.82-1.5,1.39-1.44.81.08,1.4.8,1.4,1.61v5.38c0,.44.44.74.86.6,2.8-1,4.81-3.67,4.81-6.82,0-4-3.24-7.24-7.24-7.24"/>
      <path class="cls-2" d="M28.87,8.64c.43-.33.65-.83.65-1.49s-.22-1.16-.65-1.5c-.44-.34-.89-.51-1.35-.51h-2.82v3.99h2.84c.45,0,.89-.17,1.33-.5M32.91,4.49c.39.8.59,1.68.59,2.66s-.2,1.86-.59,2.65c-.39.79-.89,1.42-1.51,1.88-1.25.96-2.54,1.44-3.88,1.44h-2.82v2.55c0,.35-.01.61-.03.78-.02.17-.09.37-.21.6-.21.41-.8.61-1.76.61-1.05,0-1.67-.28-1.85-.83-.09-.26-.13-.65-.13-1.17V3.14c0-.35.01-.6.03-.78.02-.17.09-.37.21-.6.21-.41.8-.61,1.76-.61h4.82c1.32,0,2.61.48,3.86,1.44.62.47,1.12,1.1,1.51,1.89"/>
      <path class="cls-2" d="M40.98,10.98c.57,0,.86-.24.86-.72,0-.35-.13-.62-.39-.83-.26-.21-.64-.32-1.13-.32s-.97.2-1.45.6c-.48.4-.72.82-.72,1.27h2.84ZM45.73,10.32c0,.92-.23,1.61-.69,2.05-.46.44-.96.66-1.52.66h-5.34c0,.42.25.77.74,1.06.49.29.99.43,1.49.43.87,0,1.56-.09,2.05-.27l.25-.09c.36-.17.66-.25.9-.25.48,0,.89.34,1.24,1.02.2.41.29.75.29,1.04,0,1.34-1.6,2.01-4.8,2.01-1.11,0-2.1-.19-2.97-.57-.86-.38-1.54-.89-2.02-1.52-.95-1.22-1.42-2.58-1.42-4.08,0-1.9.61-3.41,1.84-4.54,1.22-1.13,2.75-1.7,4.59-1.7,2.09,0,3.62.74,4.6,2.21.51.78.77,1.63.77,2.56"/>
      <path class="cls-2" d="M55.43,11.73l2.5,2.52c.54.54.81,1,.81,1.39s-.27.84-.81,1.38c-.54.53-1,.8-1.38.8s-.83-.27-1.38-.81l-2.48-2.5-2.5,2.5c-.54.54-1,.81-1.37.81s-.83-.27-1.37-.8c-.55-.53-.82-.99-.82-1.38s.27-.84.81-1.39l2.5-2.52-2.5-2.52c-.54-.54-.81-1-.81-1.39s.28-.85.82-1.39c.55-.54,1.01-.81,1.37-.81s.82.27,1.37.81l2.5,2.53,2.48-2.53c.54-.54,1-.81,1.38-.81s.84.27,1.38.81c.54.54.81,1,.81,1.39s-.27.84-.81,1.39l-2.5,2.52Z"/>
      <path class="cls-2" d="M59.98,7.78c0-.35.01-.6.03-.78.02-.17.09-.37.19-.6.21-.39.8-.59,1.76-.59.72,0,1.23.13,1.53.38.26.21.39.53.41.97.01.15.02.37.02.65v7.89c0,.35-.01.6-.04.78-.02.17-.09.37-.21.6-.2.39-.77.59-1.74.59s-1.53-.2-1.74-.61c-.1-.22-.17-.42-.19-.59-.02-.16-.03-.43-.03-.79v-7.91ZM63.69,3.6c-.11.22-.31.37-.6.46-.28.09-.66.14-1.14.14s-.85-.05-1.14-.14c-.29-.09-.48-.25-.6-.47-.11-.23-.18-.42-.2-.6s-.03-.43-.03-.78.01-.6.03-.78c.02-.17.09-.36.19-.58.21-.41.8-.61,1.76-.61s1.52.2,1.71.61c.12.23.19.42.21.6.02.17.04.43.04.78s-.01.6-.04.78c-.02.17-.09.37-.2.59"/>
      <path class="cls-2" d="M73.89,8.64c.43-.33.65-.83.65-1.49s-.22-1.16-.65-1.5c-.44-.34-.89-.51-1.35-.51h-2.82v3.99h2.84c.45,0,.89-.17,1.33-.5M77.93,4.49c.39.8.59,1.68.59,2.66s-.2,1.86-.59,2.65c-.39.79-.89,1.42-1.51,1.88-1.25.96-2.54,1.44-3.88,1.44h-2.82v2.55c0,.35-.01.61-.03.78-.02.17-.09.37-.21.6-.21.41-.8.61-1.76.61-1.05,0-1.67-.28-1.85-.83-.09-.26-.13-.65-.13-1.17V3.14c0-.35.01-.6.03-.78.02-.17.09-.37.21-.6.21-.41.8-.61,1.76-.61h4.82c1.32,0,2.61.48,3.86,1.44.62.47,1.12,1.1,1.51,1.89"/>
      <path class="cls-2" d="M83.59,11.75c0,.49.19.94.58,1.34.39.4.86.6,1.42.6s1.02-.2,1.39-.61c.37-.4.55-.85.55-1.34s-.18-.94-.53-1.36c-.35-.42-.83-.63-1.42-.63s-1.08.21-1.44.63c-.37.42-.55.88-.55,1.38M87.69,7.06c.09-.84.68-1.26,1.78-1.26.59,0,1.02.05,1.31.14.29.09.49.25.6.47.11.23.18.42.2.6.02.17.03.43.03.78v7.89c0,.34-.01.6-.03.78-.02.17-.09.37-.19.6-.21.39-.73.59-1.54.59s-1.37-.1-1.65-.31c-.28-.2-.44-.5-.48-.89-.56.8-1.48,1.2-2.78,1.2s-2.51-.59-3.62-1.78c-1.11-1.19-1.67-2.57-1.67-4.14s.56-2.95,1.68-4.13c1.12-1.18,2.35-1.77,3.69-1.77.51,0,.98.09,1.4.27.42.18.71.35.88.51.17.16.3.31.41.46"/>
      <path class="cls-2" d="M104.01,5.93c.89.39,1.33.86,1.33,1.42,0,.27-.06.53-.18.77-.12.24-.18.37-.18.38l-5.91,13.21c-.12.29-.22.5-.3.65-.08.15-.21.29-.39.43-.18.14-.41.2-.68.2s-.67-.11-1.2-.34c-.89-.39-1.33-.86-1.33-1.4,0-.36.72-2.08,2.16-5.16l-4.48-7.55c-.3-.5-.45-.86-.45-1.11,0-.48.41-.96,1.22-1.44.51-.3.91-.45,1.19-.45s.52.06.7.18c.18.12.31.24.39.37.08.13.5.83,1.24,2.1.74,1.27,1.45,2.45,2.13,3.55.08-.24.48-1.17,1.22-2.78.74-1.62,1.13-2.48,1.18-2.58.05-.11.14-.23.26-.38.2-.26.47-.38.82-.38s.77.11,1.25.32"/>
    </g>
  </g>
</svg>