<?xml version="1.0" encoding="UTF-8"?>
<svg id="Layer_2" data-name="Layer 2" xmlns="http://www.w3.org/2000/svg" viewBox="0 0 243.76 76.92">
  <defs>
    <style>
      .cls-1 {
        fill: #ed1d24;
      }

      .cls-2 {
        letter-spacing: 0em;
      }

      .cls-3 {
        fill: #231f20;
        font-family: FredokaOne-Regular, 'Fredoka One';
        font-size: 11.5px;
      }

      .cls-4 {
        letter-spacing: -.06em;
      }

      .cls-5 {
        letter-spacing: -.02em;
      }

      .cls-6 {
        letter-spacing: -.01em;
      }

      .cls-7 {
        letter-spacing: -.02em;
      }

      .cls-8 {
        letter-spacing: -.03em;
      }

      .cls-9 {
        letter-spacing: 0em;
      }

      .cls-10 {
        fill: #1d427b;
      }
    </style>
  </defs>
  <g id="Layer_1-2" data-name="Layer 1">
    <g>
      <path class="cls-1" d="M18.51,0H5.47C3.04,0,1.07,1.97,1.07,4.4v44.09c0,2.65,2.97,4.21,5.15,2.71l8.06-5.54c.28-.19.51-.43.71-.69.45-.57.71-1.27.71-2.02v-24.71c-.15-2.89,1.89-3.45,3.2-3.32,1.86.18,3.22,1.85,3.22,3.71v12.39c0,1.02,1.02,1.72,1.98,1.37,6.46-2.3,11.09-8.46,11.09-15.71C35.2,7.47,27.73,0,18.51,0"/>
      <path class="cls-10" d="M76.88,10.35c.9,1.84,1.35,3.88,1.35,6.13s-.45,4.29-1.35,6.1c-.9,1.82-2.06,3.26-3.48,4.34-2.87,2.21-5.85,3.32-8.93,3.32h-6.49v5.87c0,.8-.02,1.39-.08,1.79-.05.4-.21.86-.49,1.38-.48.93-1.84,1.4-4.05,1.4-2.43,0-3.84-.64-4.26-1.92-.21-.59-.31-1.49-.31-2.7V7.23c0-.79.03-1.39.08-1.79.05-.4.22-.86.49-1.38.48-.93,1.84-1.4,4.05-1.4h11.12c3.05,0,6.01,1.11,8.88,3.32,1.42,1.07,2.58,2.53,3.48,4.36M67.59,19.9c1-.76,1.5-1.9,1.5-3.43s-.5-2.68-1.5-3.45c-1.01-.78-2.05-1.17-3.12-1.17h-6.49v9.19h6.55c1.04,0,2.06-.38,3.06-1.14"/>
      <path class="cls-10" d="M106.44,23.77c0,2.13-.53,3.71-1.58,4.73-1.06,1.02-2.22,1.53-3.5,1.53h-12.31c0,.97.57,1.78,1.72,2.44,1.14.66,2.29.99,3.43.99,2.01,0,3.59-.21,4.73-.62l.57-.21c.83-.38,1.53-.57,2.08-.57,1.11,0,2.06.78,2.86,2.34.45.93.67,1.73.67,2.39,0,3.08-3.68,4.62-11.06,4.62-2.56,0-4.84-.44-6.83-1.32-1.99-.88-3.54-2.05-4.65-3.51-2.18-2.81-3.27-5.94-3.27-9.4,0-4.36,1.41-7.85,4.23-10.46,2.82-2.61,6.34-3.92,10.57-3.92,4.81,0,8.34,1.7,10.6,5.09,1.17,1.8,1.77,3.76,1.77,5.89M95.48,25.3c1.31,0,1.97-.55,1.97-1.66,0-.79-.3-1.43-.91-1.92-.6-.48-1.47-.73-2.59-.73s-2.24.46-3.35,1.38c-1.11.92-1.66,1.9-1.66,2.93h6.54Z"/>
      <path class="cls-10" d="M128.77,27.02l5.76,5.82c1.25,1.25,1.87,2.31,1.87,3.19s-.62,1.94-1.87,3.17c-1.25,1.23-2.3,1.84-3.17,1.84s-1.92-.62-3.17-1.87l-5.71-5.76-5.77,5.76c-1.25,1.25-2.29,1.87-3.14,1.87s-1.9-.61-3.17-1.84c-1.26-1.23-1.9-2.28-1.9-3.17s.63-1.95,1.87-3.19l5.77-5.82-5.77-5.82c-1.25-1.24-1.87-2.31-1.87-3.19s.63-1.95,1.9-3.19c1.26-1.25,2.32-1.87,3.17-1.87s1.9.62,3.14,1.87l5.77,5.82,5.71-5.82c1.25-1.25,2.3-1.87,3.17-1.87s1.92.62,3.17,1.87c1.25,1.24,1.87,2.31,1.87,3.19s-.62,1.95-1.87,3.19l-5.76,5.82Z"/>
      <path class="cls-10" d="M147.8,8.29c-.26.5-.72.86-1.38,1.07-.65.21-1.53.31-2.62.31s-1.97-.11-2.62-.31-1.12-.57-1.37-1.09c-.26-.52-.42-.98-.47-1.38-.05-.4-.08-.99-.08-1.79s.02-1.39.08-1.79c.05-.4.2-.84.44-1.32.49-.93,1.84-1.4,4.05-1.4s3.5.47,3.95,1.4c.28.52.44.98.49,1.38.05.4.08.99.08,1.79s-.03,1.39-.08,1.79c-.05.4-.21.85-.46,1.35M139.26,17.93c0-.8.02-1.39.08-1.79.05-.4.2-.86.44-1.38.49-.9,1.84-1.35,4.05-1.35,1.66,0,2.84.29,3.53.88.59.48.9,1.23.94,2.23.03.35.05.85.05,1.5v18.18c0,.8-.03,1.39-.08,1.79-.05.4-.21.86-.49,1.38-.45.9-1.78,1.35-4,1.35s-3.52-.47-4-1.4c-.24-.52-.39-.97-.44-1.35-.05-.38-.08-.99-.08-1.82v-18.23Z"/>
      <path class="cls-10" d="M180.6,10.35c.9,1.84,1.35,3.88,1.35,6.13s-.45,4.29-1.35,6.1c-.9,1.82-2.06,3.26-3.48,4.34-2.87,2.21-5.85,3.32-8.93,3.32h-6.49v5.87c0,.8-.02,1.39-.08,1.79-.05.4-.21.86-.49,1.38-.48.93-1.84,1.4-4.05,1.4-2.43,0-3.84-.64-4.26-1.92-.21-.59-.31-1.49-.31-2.7V7.23c0-.79.03-1.39.08-1.79.05-.4.22-.86.49-1.38.48-.93,1.84-1.4,4.05-1.4h11.12c3.05,0,6.01,1.11,8.88,3.32,1.42,1.07,2.58,2.53,3.48,4.36M171.31,19.9c1-.76,1.5-1.9,1.5-3.43s-.5-2.68-1.5-3.45c-1.01-.78-2.05-1.17-3.12-1.17h-6.49v9.19h6.55c1.04,0,2.06-.38,3.06-1.14"/>
      <path class="cls-10" d="M203.09,16.27c.21-1.94,1.58-2.91,4.1-2.91,1.35,0,2.35.11,3.01.31.66.21,1.12.57,1.38,1.09.26.52.42.98.47,1.38.05.4.08,1,.08,1.79v18.18c0,.8-.03,1.39-.08,1.79-.05.4-.2.86-.44,1.38-.49.9-1.67,1.35-3.55,1.35s-3.15-.24-3.8-.7c-.64-.47-1.01-1.15-1.11-2.05-1.28,1.84-3.42,2.75-6.41,2.75s-5.77-1.37-8.34-4.1c-2.57-2.74-3.85-5.91-3.85-9.53s1.29-6.79,3.87-9.51c2.58-2.72,5.41-4.08,8.49-4.08,1.17,0,2.25.21,3.22.62.97.42,1.64.8,2.03,1.17.38.36.69.72.93,1.07M193.64,27.07c0,1.14.45,2.17,1.35,3.09.9.92,1.99,1.38,3.27,1.38s2.35-.47,3.19-1.4c.85-.93,1.27-1.96,1.27-3.09s-.41-2.17-1.22-3.14c-.81-.97-1.9-1.45-3.27-1.45s-2.48.49-3.32,1.45c-.85.97-1.27,2.03-1.27,3.17"/>
      <path class="cls-10" d="M240.7,13.67c2.04.9,3.06,1.99,3.06,3.27,0,.62-.14,1.21-.42,1.77-.28.55-.41.85-.41.88l-13.61,30.43c-.28.66-.51,1.16-.7,1.51-.19.34-.49.67-.91.99-.42.31-.94.47-1.56.47s-1.54-.26-2.75-.78c-2.04-.9-3.06-1.97-3.06-3.22,0-.83,1.66-4.8,4.98-11.89l-10.33-17.4c-.69-1.14-1.04-1.99-1.04-2.55,0-1.11.94-2.21,2.81-3.32,1.17-.69,2.09-1.04,2.75-1.04s1.2.14,1.61.42c.41.28.72.56.91.86.19.3,1.14,1.9,2.86,4.83,1.71,2.93,3.35,5.65,4.91,8.18.17-.55,1.11-2.69,2.81-6.42,1.7-3.72,2.6-5.7,2.73-5.95.12-.24.32-.54.6-.88.45-.59,1.08-.88,1.9-.88s1.77.24,2.88.73"/>
    </g>
    <text class="cls-3" transform="translate(0 74.2)"><tspan x="0" y="0">The </tspan><tspan class="cls-4" x="24.87" y="0">F</tspan><tspan x="31.51" y="0">utu</tspan><tspan class="cls-8" x="50.61" y="0">r</tspan><tspan class="cls-2" x="55.54" y="0">e </tspan><tspan class="cls-7" x="65.04" y="0">o</tspan><tspan x="71.72" y="0">f Seam</tspan><tspan class="cls-9" x="109.75" y="0">l</tspan><tspan x="113.41" y="0">ess Digital P</tspan><tspan class="cls-5" x="180.81" y="0">a</tspan><tspan class="cls-6" x="187.44" y="0">y</tspan><tspan x="194.21" y="0">me</tspan><tspan class="cls-9" x="210.59" y="0">n</tspan><tspan x="217.46" y="0">ts</tspan></text>
    <path class="cls-1" d="M234.32,74.44v-9.15c0-1.8,2.18-2.7,3.45-1.43l4.58,4.58c.79.79.79,2.07,0,2.86l-4.58,4.58c-1.27,1.27-3.45.37-3.45-1.43"/>
  </g>
</svg>