<?xml version="1.0" encoding="UTF-8"?>
<svg id="Layer_2" data-name="Layer 2" xmlns="http://www.w3.org/2000/svg" viewBox="0 0 151.09 32.99">
  <defs>
    <style>
      .cls-1 {
        fill: #ed1c24;
      }

      .cls-2 {
        fill: #fff;
      }
    </style>
  </defs>
  <g id="Layer_1-2" data-name="Layer 1">
    <path class="cls-1" d="M10.86,0H2.74C1.22,0,0,1.23,0,2.74v27.45c0,1.65,1.85,2.62,3.21,1.69l5.02-3.45c.17-.12.32-.27.44-.43.28-.36.44-.79.44-1.26v-15.38c-.09-1.8,1.17-2.15,1.99-2.07,1.16.11,2,1.15,2,2.31v7.71c0,.64.63,1.07,1.23.85,4.02-1.43,6.9-5.27,6.9-9.78C21.24,4.65,16.59,0,10.86,0"/>
    <path class="cls-2" d="M41.41,12.39c.62-.47.94-1.18.94-2.13s-.31-1.67-.94-2.15c-.63-.49-1.27-.73-1.94-.73h-4.04v5.72h4.08c.65,0,1.28-.24,1.91-.71M47.2,6.44c.56,1.14.84,2.41.84,3.82s-.28,2.67-.84,3.8c-.56,1.13-1.28,2.03-2.17,2.7-1.79,1.38-3.64,2.07-5.56,2.07h-4.04v3.65c0,.5-.02.87-.05,1.12-.03.25-.13.53-.31.86-.3.58-1.14.87-2.52.87-1.51,0-2.39-.4-2.65-1.2-.13-.36-.19-.93-.19-1.68V4.5c0-.49.01-.87.05-1.11.03-.25.13-.53.31-.86.3-.58,1.14-.87,2.52-.87h6.92c1.9,0,3.74.69,5.53,2.07.88.67,1.6,1.57,2.17,2.72"/>
    <path class="cls-2" d="M58.77,15.75c.82,0,1.23-.35,1.23-1.04,0-.49-.19-.89-.57-1.2-.38-.3-.92-.45-1.62-.45s-1.4.29-2.09.86c-.69.57-1.03,1.18-1.03,1.83h4.07ZM65.6,14.8c0,1.33-.33,2.31-.99,2.94-.66.64-1.38.95-2.18.95h-7.66c0,.6.36,1.11,1.07,1.52.71.41,1.42.61,2.13.61,1.25,0,2.23-.13,2.94-.39l.35-.13c.52-.24.95-.36,1.3-.36.69,0,1.28.48,1.78,1.46.28.58.42,1.08.42,1.49,0,1.92-2.29,2.88-6.89,2.88-1.59,0-3.01-.27-4.25-.82-1.24-.55-2.21-1.28-2.9-2.18-1.36-1.75-2.04-3.7-2.04-5.85,0-2.72.88-4.89,2.64-6.52,1.75-1.63,3.95-2.44,6.58-2.44,3,0,5.19,1.06,6.6,3.17.73,1.12,1.1,2.34,1.1,3.67"/>
    <path class="cls-2" d="M79.5,16.82l3.59,3.62c.78.78,1.16,1.44,1.16,1.99s-.39,1.21-1.16,1.97c-.78.77-1.43,1.15-1.97,1.15s-1.2-.39-1.97-1.16l-3.56-3.59-3.59,3.59c-.78.78-1.43,1.16-1.96,1.16s-1.18-.38-1.97-1.15c-.79-.76-1.18-1.42-1.18-1.97s.39-1.21,1.17-1.99l3.59-3.62-3.59-3.62c-.78-.78-1.17-1.44-1.17-1.99s.4-1.21,1.18-1.99c.79-.78,1.44-1.16,1.97-1.16s1.18.39,1.96,1.16l3.59,3.62,3.56-3.62c.78-.78,1.43-1.16,1.97-1.16s1.2.39,1.97,1.16,1.16,1.44,1.16,1.99-.39,1.21-1.16,1.99l-3.59,3.62Z"/>
    <path class="cls-2" d="M86.03,11.16c0-.5.01-.87.05-1.12.03-.25.12-.53.27-.86.3-.56,1.14-.84,2.52-.84,1.03,0,1.76.18,2.2.55.37.3.56.77.58,1.39.02.22.03.53.03.94v11.32c0,.5-.01.87-.05,1.12-.03.25-.13.53-.3.86-.28.56-1.11.84-2.49.84s-2.19-.29-2.49-.87c-.15-.32-.24-.6-.27-.84-.03-.24-.05-.61-.05-1.13v-11.35ZM91.35,5.16c-.16.31-.45.53-.86.66-.41.13-.95.2-1.63.2s-1.22-.07-1.63-.2c-.41-.13-.7-.35-.86-.68-.16-.32-.26-.61-.29-.86-.03-.25-.05-.62-.05-1.12s.01-.87.05-1.12c.03-.25.12-.52.27-.82.3-.58,1.14-.87,2.52-.87s2.18.29,2.46.87c.17.32.27.61.3.86.04.25.05.62.05,1.11s-.01.87-.05,1.12c-.03.25-.13.53-.29.84"/>
    <path class="cls-2" d="M105.98,12.39c.62-.47.94-1.18.94-2.13s-.31-1.67-.94-2.15c-.63-.49-1.27-.73-1.94-.73h-4.04v5.72h4.08c.65,0,1.28-.24,1.91-.71M111.77,6.44c.56,1.14.84,2.41.84,3.82s-.28,2.67-.84,3.8c-.56,1.13-1.28,2.03-2.17,2.7-1.79,1.38-3.64,2.07-5.56,2.07h-4.04v3.65c0,.5-.02.87-.05,1.12-.03.25-.13.53-.31.86-.3.58-1.14.87-2.52.87-1.51,0-2.39-.4-2.65-1.2-.13-.36-.19-.93-.19-1.68V4.5c0-.49.01-.87.05-1.11.03-.25.13-.53.31-.86.3-.58,1.14-.87,2.52-.87h6.92c1.9,0,3.74.69,5.53,2.07.88.67,1.6,1.57,2.17,2.72"/>
    <path class="cls-2" d="M119.89,16.85c0,.71.28,1.35.84,1.92.56.57,1.24.86,2.04.86s1.46-.29,1.99-.87c.53-.58.79-1.22.79-1.92s-.25-1.35-.76-1.96c-.5-.6-1.18-.9-2.04-.9s-1.54.3-2.07.9c-.53.6-.79,1.26-.79,1.97M125.77,10.13c.13-1.21.98-1.81,2.55-1.81.84,0,1.47.07,1.87.2.41.13.7.35.86.68.16.32.26.61.29.86.03.25.05.62.05,1.12v11.32c0,.5-.02.87-.05,1.12-.03.25-.13.53-.28.86-.3.56-1.04.84-2.21.84s-1.96-.15-2.36-.44c-.4-.29-.63-.72-.69-1.28-.8,1.14-2.13,1.72-3.99,1.72s-3.6-.85-5.19-2.55c-1.6-1.7-2.4-3.68-2.4-5.93s.8-4.22,2.41-5.92c1.6-1.69,3.37-2.54,5.29-2.54.73,0,1.4.13,2,.39.6.26,1.02.5,1.26.73.24.23.43.45.58.66"/>
    <path class="cls-2" d="M149.19,8.51c1.27.56,1.91,1.24,1.91,2.04,0,.39-.09.76-.26,1.1-.17.35-.26.53-.26.55l-8.47,18.95c-.17.41-.32.72-.44.94-.12.21-.31.42-.57.61-.26.19-.58.29-.97.29s-.96-.16-1.71-.49c-1.27-.56-1.91-1.23-1.91-2,0-.52,1.03-2.99,3.1-7.41l-6.43-10.83c-.43-.71-.65-1.24-.65-1.59,0-.69.58-1.38,1.75-2.07.73-.43,1.3-.65,1.71-.65s.74.09,1,.26c.26.17.45.35.57.53.12.18.71,1.19,1.78,3.01,1.07,1.82,2.09,3.52,3.05,5.09.11-.34.69-1.68,1.75-3.99,1.06-2.32,1.62-3.55,1.7-3.7.07-.15.2-.33.37-.55.28-.37.67-.55,1.18-.55s1.1.15,1.8.45"/>
  </g>
</svg>